# xmcd
#
# Track frame offsets:
#	150
#	11855
#	24643
#	38437
#	52038
#	64794
#	78223
#	91925
#	106348
#	122278
#	136621
#	149978
#	164965
#	178423
#	194118
#	208073
#	222918
#	235638
#	250066
#	262737
#	275407
#
# Disc length: 3859 seconds
#
# Revision: 0
# Processed by: cddbd v1.5.2PL0 Copyright (c) Steve Scherf et al.
# Submitted via: audiograbber 1.83.01
#
DISCID=340f1115
DTITLE=Lee (Sonny Boy) Williamson - Million Year Blues - CD2
DYEAR=2005
DGENRE=Blues
TTITLE0=Worried Be Blues
TTITLE1=Black Gal Blues
TTITLE2=Frigidaire Blues
TTITLE3=Suzanna Blues
TTITLE4=Early In The Morning
TTITLE5=Sugar Mama Blues
TTITLE6=Skin Woman
TTITLE7=My Little Cornelia
TTITLE8=Decoration Blues
TTITLE9=You Can Lead Me
TTITLE10=Miss Luisa Blues
TTITLE11=Sunnyland
TTITLE12=I'm Tired Trucking My blues Away
TTITLE13=Beauty Parlour
TTITLE14=My Baby I've Been Your Slave
TTITLE15=Doddin' My Love Around
TTITLE16=Little Low Woman Blues
TTITLE17=Sugar Mama Blues No 2
TTITLE18=Good Gal Blues
TTITLE19=I'm Not Pleasing You
TTITLE20=Honey Bee Blues
EXTD=YEAR: 2005
EXTT0=
EXTT1=
EXTT2=
EXTT3=
EXTT4=
EXTT5=
EXTT6=
EXTT7=
EXTT8=
EXTT9=
EXTT10=
EXTT11=
EXTT12=
EXTT13=
EXTT14=
EXTT15=
EXTT16=
EXTT17=
EXTT18=
EXTT19=
EXTT20=
PLAYORDER=
